<svg xmlns="http://www.w3.org/2000/svg" width="202.599" height="44.953" viewBox="0 0 202.599 44.953">
  <g id="Grupo_5" data-name="Grupo 5" transform="translate(-294.701 -230.429)">
    <path id="Trazado_3" data-name="Trazado 3" d="M311.273,240.068l3.993-9.639h7.579l5,29.456h-7.618l-2.538-16.954-5.068,10.888h-2.7l-5.068-10.888-2.539,16.954H294.7l5-29.456h7.579Z" fill="#fff"/>
    <path id="Trazado_4" data-name="Trazado 4" d="M345.636,239.844h7.11v20.041h-7.11v-2.226a7.42,7.42,0,0,1-6.135,2.851,9.964,9.964,0,0,1-4.023-.8,9.7,9.7,0,0,1-3.2-2.247,10.366,10.366,0,0,1-2.13-3.4,11.642,11.642,0,0,1-.76-4.258,11.3,11.3,0,0,1,.741-4.082,10.517,10.517,0,0,1,2.071-3.381,9.756,9.756,0,0,1,3.165-2.284,9.639,9.639,0,0,1,4.062-.84,8.163,8.163,0,0,1,6.212,2.617Zm-8.908,9.963a4.668,4.668,0,0,0,1.31,3.281,4.273,4.273,0,0,0,1.445.977,4.672,4.672,0,0,0,1.816.351,4.588,4.588,0,0,0,1.778-.351,4.3,4.3,0,0,0,1.444-.977,5.036,5.036,0,0,0,.977-1.445,4.212,4.212,0,0,0,.373-1.759,4.343,4.343,0,0,0-.373-1.777,4.943,4.943,0,0,0-.977-1.464,4.284,4.284,0,0,0-1.444-.977,4.571,4.571,0,0,0-1.778-.352,4.655,4.655,0,0,0-1.816.352,4.259,4.259,0,0,0-1.445.977,4.77,4.77,0,0,0-.958,1.425,4.287,4.287,0,0,0-.352,1.739" fill="#fff"/>
    <path id="Trazado_5" data-name="Trazado 5" d="M371.322,246.33a6.546,6.546,0,0,0-3.711-1.25,5.041,5.041,0,0,0-1.895.352,4.69,4.69,0,0,0-1.543.995,4.566,4.566,0,0,0-1.035,1.524,5.016,5.016,0,0,0-.372,1.972,4.907,4.907,0,0,0,.372,1.934,4.724,4.724,0,0,0,1.015,1.524,4.428,4.428,0,0,0,1.544,1,5.206,5.206,0,0,0,1.914.352,5.844,5.844,0,0,0,3.711-1.368v6.016a12.513,12.513,0,0,1-4.961,1.133,11.707,11.707,0,0,1-4.161-.741,10.557,10.557,0,0,1-3.477-2.129,10.446,10.446,0,0,1-2.4-3.322,10.106,10.106,0,0,1-.9-4.316,10.793,10.793,0,0,1,.859-4.356,10.407,10.407,0,0,1,2.345-3.4,10.566,10.566,0,0,1,3.535-2.227,11.971,11.971,0,0,1,4.395-.8,10.511,10.511,0,0,1,4.766,1.094Z" fill="#fff"/>
    <path id="Trazado_6" data-name="Trazado 6" d="M374.56,239.845h7.071v3.281a8.117,8.117,0,0,1,2.774-2.754,7.456,7.456,0,0,1,3.828-.957h.606a4.441,4.441,0,0,1,.762.078v6.758a6.72,6.72,0,0,0-3.048-.7,4.545,4.545,0,0,0-3.691,1.465,6.494,6.494,0,0,0-1.231,4.278v8.595H374.56Z" fill="#fff"/>
    <path id="Trazado_7" data-name="Trazado 7" d="M391.69,249.69a9.746,9.746,0,0,1,.9-4.162,10.216,10.216,0,0,1,2.5-3.359,11.86,11.86,0,0,1,3.809-2.246,13.738,13.738,0,0,1,4.824-.82,13.978,13.978,0,0,1,4.786.8,11.864,11.864,0,0,1,3.828,2.227,10.013,10.013,0,0,1,2.52,3.4,10.392,10.392,0,0,1,.9,4.356,10.206,10.206,0,0,1-.918,4.356,10.331,10.331,0,0,1-2.52,3.4,11.3,11.3,0,0,1-3.848,2.206,14.708,14.708,0,0,1-4.864.781,14.074,14.074,0,0,1-4.766-.781,11,11,0,0,1-3.77-2.226,10.333,10.333,0,0,1-2.48-3.457,10.838,10.838,0,0,1-.9-4.473m7.462.078a4.537,4.537,0,0,0,.371,1.856,4.918,4.918,0,0,0,.977,1.464,4.283,4.283,0,0,0,1.445.977,4.676,4.676,0,0,0,3.555,0,4.313,4.313,0,0,0,1.445-.977,4.975,4.975,0,0,0,.977-1.464,4.437,4.437,0,0,0,.371-1.817,4.342,4.342,0,0,0-.371-1.778,4.962,4.962,0,0,0-.977-1.464,4.315,4.315,0,0,0-1.445-.978,4.676,4.676,0,0,0-3.555,0,4.285,4.285,0,0,0-1.445.978,4.978,4.978,0,0,0-.977,1.444,4.214,4.214,0,0,0-.371,1.759" fill="#fff"/>
    <path id="Trazado_8" data-name="Trazado 8" d="M425.428,269.887h-7.071V239.845h7.071v2.227a7.459,7.459,0,0,1,6.172-2.852,9.616,9.616,0,0,1,4.005.84,10.162,10.162,0,0,1,3.222,2.285,10.363,10.363,0,0,1,2.13,3.4,11.425,11.425,0,0,1,.762,4.18,11.116,11.116,0,0,1-.762,4.141,10.644,10.644,0,0,1-2.11,3.359,9.667,9.667,0,0,1-7.168,3.087,8.353,8.353,0,0,1-6.251-2.578Zm8.907-19.963a4.8,4.8,0,0,0-.332-1.777,4.267,4.267,0,0,0-.957-1.465,4.8,4.8,0,0,0-1.465-1,4.452,4.452,0,0,0-1.816-.371,4.407,4.407,0,0,0-1.759.352,4.336,4.336,0,0,0-1.425.977,4.976,4.976,0,0,0-.977,1.464,4.346,4.346,0,0,0-.371,1.778,4.422,4.422,0,0,0,.351,1.758,4.355,4.355,0,0,0,.977,1.426,4.945,4.945,0,0,0,1.465.976,4.34,4.34,0,0,0,1.778.372,4.415,4.415,0,0,0,1.757-.352,4.313,4.313,0,0,0,1.426-.978,5.044,5.044,0,0,0,.977-1.444,4.131,4.131,0,0,0,.371-1.719" fill="#ffd300"/>
    <path id="Trazado_9" data-name="Trazado 9" d="M460.539,239.844h7.11v20.041h-7.11v-2.226a7.418,7.418,0,0,1-6.134,2.851,9.968,9.968,0,0,1-4.023-.8,9.7,9.7,0,0,1-3.2-2.247,10.346,10.346,0,0,1-2.129-3.4,11.621,11.621,0,0,1-.761-4.258,11.285,11.285,0,0,1,.742-4.082,10.514,10.514,0,0,1,2.07-3.381,9.756,9.756,0,0,1,3.165-2.284,9.645,9.645,0,0,1,4.062-.84,8.162,8.162,0,0,1,6.212,2.617Zm-8.907,9.963a4.673,4.673,0,0,0,1.309,3.281,4.283,4.283,0,0,0,1.445.977,4.677,4.677,0,0,0,1.817.351,4.588,4.588,0,0,0,1.778-.351,4.333,4.333,0,0,0,1.445-.977,5.074,5.074,0,0,0,.976-1.445,4.212,4.212,0,0,0,.372-1.759,4.342,4.342,0,0,0-.372-1.777,4.979,4.979,0,0,0-.976-1.464,4.318,4.318,0,0,0-1.445-.977,4.571,4.571,0,0,0-1.778-.352,4.66,4.66,0,0,0-1.817.352,4.268,4.268,0,0,0-1.445.977,4.785,4.785,0,0,0-.957,1.425,4.27,4.27,0,0,0-.352,1.739" fill="#ffd300"/>
    <path id="Trazado_10" data-name="Trazado 10" d="M480.11,257.151l-9.687-17.306h8.2l5.351,10.274,5.2-10.274H497.3l-16.1,30.041h-7.931Z" fill="#ffd300"/>
    <path id="Trazado_11" data-name="Trazado 11" d="M433.127,267.64a3,3,0,1,1-3-3,3,3,0,0,1,3,3" fill="#ffd300"/>
    <path id="Trazado_12" data-name="Trazado 12" d="M433.127,267.64a3,3,0,1,1-3-3,3,3,0,0,1,3,3" fill="#ffd300"/>
    <path id="Trazado_13" data-name="Trazado 13" d="M433.129,267.642a3,3,0,1,1-3-3,3,3,0,0,1,3,3" fill="#ffd300"/>
    <path id="Trazado_14" data-name="Trazado 14" d="M433.132,267.645a3,3,0,1,1-3-3,3,3,0,0,1,3,3" fill="#ffd300"/>
    <path id="Trazado_15" data-name="Trazado 15" d="M433.136,267.649a3,3,0,1,1-3-3,3,3,0,0,1,3,3" fill="#ffd300"/>
    <path id="Trazado_16" data-name="Trazado 16" d="M433.141,267.655a3,3,0,1,1-3-3,3,3,0,0,1,3,3" fill="#ffd300"/>
    <path id="Trazado_17" data-name="Trazado 17" d="M433.146,267.662a3,3,0,1,1-3-3,3,3,0,0,1,3,3" fill="#ffd300"/>
    <path id="Trazado_18" data-name="Trazado 18" d="M433.154,267.669a3,3,0,1,1-3-3,3,3,0,0,1,3,3" fill="#ffd300"/>
    <path id="Trazado_19" data-name="Trazado 19" d="M433.162,267.678a3,3,0,1,1-3-3,3,3,0,0,1,3,3" fill="#ffd300"/>
    <path id="Trazado_20" data-name="Trazado 20" d="M433.172,267.689a3,3,0,1,1-3-3,3,3,0,0,1,3,3" fill="#ffd300"/>
    <path id="Trazado_21" data-name="Trazado 21" d="M433.183,267.7a3,3,0,1,1-3-3,3,3,0,0,1,3,3" fill="#ffd300"/>
    <path id="Trazado_22" data-name="Trazado 22" d="M433.194,267.712a3,3,0,1,1-3-3,3,3,0,0,1,3,3" fill="#ffd300"/>
    <path id="Trazado_23" data-name="Trazado 23" d="M433.207,267.725a3,3,0,1,1-3-3,3,3,0,0,1,3,3" fill="#ffd300"/>
    <path id="Trazado_24" data-name="Trazado 24" d="M433.221,267.739a3,3,0,1,1-3-3,3,3,0,0,1,3,3" fill="#ffd300"/>
    <path id="Trazado_25" data-name="Trazado 25" d="M433.236,267.755a3,3,0,1,1-3-3,3,3,0,0,1,3,3" fill="#ffd300"/>
    <path id="Trazado_26" data-name="Trazado 26" d="M433.252,267.772a3,3,0,1,1-3-3,3,3,0,0,1,3,3" fill="#ffd300"/>
    <path id="Trazado_27" data-name="Trazado 27" d="M433.269,267.789a3,3,0,1,1-3-3,3,3,0,0,1,3,3" fill="#ffd300"/>
    <path id="Trazado_28" data-name="Trazado 28" d="M433.288,267.808a3,3,0,1,1-3-3,3,3,0,0,1,3,3" fill="#ffd300"/>
    <path id="Trazado_29" data-name="Trazado 29" d="M433.308,267.826a3,3,0,1,1-3-3,3,3,0,0,1,3,3" fill="#ffd300"/>
    <path id="Trazado_30" data-name="Trazado 30" d="M433.328,267.847a3,3,0,1,1-3-3,3,3,0,0,1,3,3" fill="#ffd300"/>
    <path id="Trazado_31" data-name="Trazado 31" d="M433.351,267.868a3,3,0,1,1-3-3,3,3,0,0,1,3,3" fill="#ffd300"/>
    <path id="Trazado_32" data-name="Trazado 32" d="M433.373,267.891a3,3,0,1,1-3-3,3,3,0,0,1,3,3" fill="#ffd300"/>
    <path id="Trazado_33" data-name="Trazado 33" d="M433.4,267.914a3,3,0,1,1-3-3,3,3,0,0,1,3,3" fill="#ffd300"/>
    <path id="Trazado_34" data-name="Trazado 34" d="M433.423,267.938a3,3,0,1,1-3-3,3,3,0,0,1,3,3" fill="#ffd300"/>
    <path id="Trazado_35" data-name="Trazado 35" d="M433.449,267.963a3,3,0,1,1-3-3,3,3,0,0,1,3,3" fill="#ffd300"/>
    <path id="Trazado_36" data-name="Trazado 36" d="M433.477,267.989a3,3,0,1,1-3-3,3,3,0,0,1,3,3" fill="#ffd300"/>
    <path id="Trazado_37" data-name="Trazado 37" d="M433.505,268.015a3,3,0,1,1-3-3,3,3,0,0,1,3,3" fill="#ffd300"/>
    <path id="Trazado_38" data-name="Trazado 38" d="M433.534,268.043a3,3,0,1,1-3-3,3,3,0,0,1,3,3" fill="#ffd300"/>
    <path id="Trazado_39" data-name="Trazado 39" d="M433.565,268.071a3,3,0,1,1-3-3,3,3,0,0,1,3,3" fill="#ffd300"/>
    <path id="Trazado_40" data-name="Trazado 40" d="M433.6,268.1a3,3,0,1,1-3-3,3,3,0,0,1,3,3" fill="#ffd300"/>
    <path id="Trazado_41" data-name="Trazado 41" d="M433.63,268.13a3,3,0,1,1-3-3,3,3,0,0,1,3,3" fill="#ffd300"/>
    <path id="Trazado_42" data-name="Trazado 42" d="M433.664,268.16a3,3,0,1,1-3-3,3,3,0,0,1,3,3" fill="#ffd300"/>
    <path id="Trazado_43" data-name="Trazado 43" d="M433.7,268.191a3,3,0,1,1-3-3,3,3,0,0,1,3,3" fill="#ffd300"/>
    <path id="Trazado_44" data-name="Trazado 44" d="M433.736,268.224a3,3,0,1,1-3-3,3,3,0,0,1,3,3" fill="#ffd300"/>
    <path id="Trazado_45" data-name="Trazado 45" d="M433.773,268.256a3,3,0,1,1-3-3,3,3,0,0,1,3,3" fill="#ffd300"/>
    <path id="Trazado_46" data-name="Trazado 46" d="M433.812,268.289a3,3,0,1,1-3-3,3,3,0,0,1,3,3" fill="#ffd300"/>
    <path id="Trazado_47" data-name="Trazado 47" d="M433.852,268.323a3,3,0,1,1-3-3,3,3,0,0,1,3,3" fill="#ffd300"/>
    <path id="Trazado_48" data-name="Trazado 48" d="M433.894,268.358a3,3,0,1,1-3-3,3,3,0,0,1,3,3" fill="#ffd300"/>
    <path id="Trazado_49" data-name="Trazado 49" d="M433.935,268.394a3,3,0,1,1-3-3,3,3,0,0,1,3,3" fill="#ffd300"/>
    <path id="Trazado_50" data-name="Trazado 50" d="M433.978,268.43a3,3,0,1,1-3-3,3,3,0,0,1,3,3" fill="#ffd300"/>
    <path id="Trazado_51" data-name="Trazado 51" d="M434.023,268.466a3,3,0,1,1-3-3,3,3,0,0,1,3,3" fill="#ffd300"/>
    <path id="Trazado_52" data-name="Trazado 52" d="M434.068,268.5a3,3,0,1,1-3-3,3,3,0,0,1,3,3" fill="#ffd300"/>
    <path id="Trazado_53" data-name="Trazado 53" d="M434.115,268.542a3,3,0,1,1-3-3,3,3,0,0,1,3,3" fill="#ffd300"/>
    <path id="Trazado_54" data-name="Trazado 54" d="M434.163,268.58a3,3,0,1,1-3-3,3,3,0,0,1,3,3" fill="#ffd300"/>
    <path id="Trazado_55" data-name="Trazado 55" d="M434.212,268.618a3,3,0,1,1-3-3,3,3,0,0,1,3,3" fill="#ffd300"/>
    <path id="Trazado_56" data-name="Trazado 56" d="M434.262,268.658a3,3,0,1,1-3-3,3,3,0,0,1,3,3" fill="#ffd300"/>
    <path id="Trazado_57" data-name="Trazado 57" d="M434.313,268.7a3,3,0,1,1-3-3,3,3,0,0,1,3,3" fill="#ffd300"/>
    <path id="Trazado_58" data-name="Trazado 58" d="M434.365,268.738a3,3,0,1,1-3-3,3,3,0,0,1,3,3" fill="#ffd300"/>
    <path id="Trazado_59" data-name="Trazado 59" d="M434.419,268.779a3,3,0,1,1-3-3,3,3,0,0,1,3,3" fill="#ffd300"/>
    <path id="Trazado_60" data-name="Trazado 60" d="M434.474,268.82a3,3,0,1,1-3-3,3,3,0,0,1,3,3" fill="#ffd300"/>
    <path id="Trazado_61" data-name="Trazado 61" d="M434.529,268.862a3,3,0,1,1-3-3,3,3,0,0,1,3,3" fill="#ffd300"/>
    <path id="Trazado_62" data-name="Trazado 62" d="M434.586,268.9a3,3,0,1,1-3-3,3,3,0,0,1,3,3" fill="#ffd300"/>
    <path id="Trazado_63" data-name="Trazado 63" d="M434.644,268.947a3,3,0,1,1-3-3,3,3,0,0,1,3,3" fill="#ffd300"/>
    <path id="Trazado_64" data-name="Trazado 64" d="M434.7,268.989a3,3,0,1,1-3-3,3,3,0,0,1,3,3" fill="#ffd300"/>
    <path id="Trazado_65" data-name="Trazado 65" d="M434.763,269.033a3,3,0,1,1-3-3,3,3,0,0,1,3,3" fill="#ffd300"/>
    <path id="Trazado_66" data-name="Trazado 66" d="M434.824,269.076a3,3,0,1,1-3-3,3,3,0,0,1,3,3" fill="#ffd300"/>
    <path id="Trazado_67" data-name="Trazado 67" d="M434.887,269.121a3,3,0,1,1-3-3,3,3,0,0,1,3,3" fill="#ffd300"/>
    <path id="Trazado_68" data-name="Trazado 68" d="M434.951,269.165a3,3,0,1,1-3-3,3,3,0,0,1,3,3" fill="#ffd300"/>
    <path id="Trazado_69" data-name="Trazado 69" d="M435.016,269.21a3,3,0,1,1-3-3,3,3,0,0,1,3,3" fill="#ffd300"/>
    <path id="Trazado_70" data-name="Trazado 70" d="M435.081,269.254a3,3,0,1,1-3-3,3,3,0,0,1,3,3" fill="#ffd300"/>
    <path id="Trazado_71" data-name="Trazado 71" d="M435.148,269.3a3,3,0,1,1-3-3,3,3,0,0,1,3,3" fill="#ffd300"/>
    <path id="Trazado_72" data-name="Trazado 72" d="M435.217,269.345a3,3,0,1,1-3-3,3,3,0,0,1,3,3" fill="#ffd300"/>
    <path id="Trazado_73" data-name="Trazado 73" d="M435.286,269.391a3,3,0,1,1-3-3,3,3,0,0,1,3,3" fill="#ffd300"/>
    <path id="Trazado_74" data-name="Trazado 74" d="M435.356,269.437a3,3,0,1,1-3-3,3,3,0,0,1,3,3" fill="#ffd300"/>
    <path id="Trazado_75" data-name="Trazado 75" d="M435.429,269.483a3,3,0,1,1-3-3,3,3,0,0,1,3,3" fill="#ffd300"/>
    <path id="Trazado_76" data-name="Trazado 76" d="M435.5,269.529a3,3,0,1,1-3-3,3,3,0,0,1,3,3" fill="#ffd300"/>
    <path id="Trazado_77" data-name="Trazado 77" d="M435.575,269.576a3,3,0,1,1-3-3,3,3,0,0,1,3,3" fill="#ffd300"/>
    <path id="Trazado_78" data-name="Trazado 78" d="M435.65,269.622a3,3,0,1,1-3-3,3,3,0,0,1,3,3" fill="#ffd300"/>
    <path id="Trazado_79" data-name="Trazado 79" d="M435.727,269.669a3,3,0,1,1-3-3,3,3,0,0,1,3,3" fill="#ffd300"/>
    <path id="Trazado_80" data-name="Trazado 80" d="M435.8,269.716a3,3,0,1,1-3-3,3,3,0,0,1,3,3" fill="#ffd300"/>
    <path id="Trazado_81" data-name="Trazado 81" d="M435.882,269.763a3,3,0,1,1-3-3,3,3,0,0,1,3,3" fill="#ffd300"/>
    <path id="Trazado_82" data-name="Trazado 82" d="M435.962,269.81a3,3,0,1,1-3-3,3,3,0,0,1,3,3" fill="#ffd300"/>
    <path id="Trazado_83" data-name="Trazado 83" d="M436.043,269.856a3,3,0,1,1-3-3,3,3,0,0,1,3,3" fill="#ffd300"/>
    <path id="Trazado_84" data-name="Trazado 84" d="M436.124,269.9a3,3,0,1,1-3-3,3,3,0,0,1,3,3" fill="#ffd300"/>
    <path id="Trazado_85" data-name="Trazado 85" d="M436.208,269.951a3,3,0,1,1-3-3,3,3,0,0,1,3,3" fill="#ffd300"/>
    <path id="Trazado_86" data-name="Trazado 86" d="M436.292,270a3,3,0,1,1-3-3,3,3,0,0,1,3,3" fill="#ffd300"/>
    <path id="Trazado_87" data-name="Trazado 87" d="M436.377,270.046a3,3,0,1,1-3-3,3,3,0,0,1,3,3" fill="#ffd300"/>
    <path id="Trazado_88" data-name="Trazado 88" d="M436.464,270.093a3,3,0,1,1-3-3,3,3,0,0,1,3,3" fill="#ffd300"/>
    <path id="Trazado_89" data-name="Trazado 89" d="M436.552,270.141a3,3,0,1,1-3-3,3,3,0,0,1,3,3" fill="#ffd300"/>
    <path id="Trazado_90" data-name="Trazado 90" d="M436.641,270.188a3,3,0,1,1-3-3,3,3,0,0,1,3,3" fill="#ffd300"/>
    <path id="Trazado_91" data-name="Trazado 91" d="M436.73,270.234a3,3,0,1,1-3-3,3,3,0,0,1,3,3" fill="#ffd300"/>
    <path id="Trazado_92" data-name="Trazado 92" d="M436.821,270.281a3,3,0,1,1-3-3,3,3,0,0,1,3,3" fill="#ffd300"/>
    <path id="Trazado_93" data-name="Trazado 93" d="M436.914,270.329a3,3,0,1,1-3-3,3,3,0,0,1,3,3" fill="#ffd300"/>
    <path id="Trazado_94" data-name="Trazado 94" d="M437.007,270.376a3,3,0,1,1-3-3,3,3,0,0,1,3,3" fill="#ffd300"/>
    <path id="Trazado_95" data-name="Trazado 95" d="M437.1,270.422a3,3,0,1,1-3-3,3,3,0,0,1,3,3" fill="#ffd300"/>
    <path id="Trazado_96" data-name="Trazado 96" d="M437.2,270.469a3,3,0,1,1-3-3,3,3,0,0,1,3,3" fill="#ffd300"/>
    <path id="Trazado_97" data-name="Trazado 97" d="M437.294,270.515a3,3,0,1,1-3-3,3,3,0,0,1,3,3" fill="#ffd300"/>
    <path id="Trazado_98" data-name="Trazado 98" d="M437.393,270.562a3,3,0,1,1-3-3,3,3,0,0,1,3,3" fill="#ffd300"/>
    <path id="Trazado_99" data-name="Trazado 99" d="M437.491,270.607a3,3,0,1,1-3-3,3,3,0,0,1,3,3" fill="#ffd300"/>
    <path id="Trazado_100" data-name="Trazado 100" d="M437.592,270.653a3,3,0,1,1-3-3,3,3,0,0,1,3,3" fill="#ffd300"/>
    <path id="Trazado_101" data-name="Trazado 101" d="M437.693,270.7a3,3,0,1,1-3-3,3,3,0,0,1,3,3" fill="#ffd300"/>
    <path id="Trazado_102" data-name="Trazado 102" d="M437.8,270.744a3,3,0,1,1-3-3,3,3,0,0,1,3,3" fill="#ffd300"/>
    <path id="Trazado_103" data-name="Trazado 103" d="M437.9,270.789a3,3,0,1,1-3-3,3,3,0,0,1,3,3" fill="#ffd300"/>
    <path id="Trazado_104" data-name="Trazado 104" d="M438.005,270.834a3,3,0,1,1-3-3,3,3,0,0,1,3,3" fill="#ffd300"/>
    <path id="Trazado_105" data-name="Trazado 105" d="M438.11,270.878a3,3,0,1,1-3-3,3,3,0,0,1,3,3" fill="#ffd300"/>
    <path id="Trazado_106" data-name="Trazado 106" d="M438.218,270.922a3,3,0,1,1-3-3,3,3,0,0,1,3,3" fill="#ffd300"/>
    <path id="Trazado_107" data-name="Trazado 107" d="M438.326,270.966a3,3,0,1,1-3-3,3,3,0,0,1,3,3" fill="#ffd300"/>
    <path id="Trazado_108" data-name="Trazado 108" d="M438.435,271.01a3,3,0,1,1-3-3,3,3,0,0,1,3,3" fill="#ffd300"/>
    <path id="Trazado_109" data-name="Trazado 109" d="M438.547,271.053a3,3,0,1,1-3-3,3,3,0,0,1,3,3" fill="#ffd300"/>
    <path id="Trazado_110" data-name="Trazado 110" d="M438.658,271.1a3,3,0,1,1-3-3,3,3,0,0,1,3,3" fill="#ffd300"/>
    <path id="Trazado_111" data-name="Trazado 111" d="M438.771,271.138a3,3,0,1,1-3-3,3,3,0,0,1,3,3" fill="#ffd300"/>
    <path id="Trazado_112" data-name="Trazado 112" d="M438.886,271.18a3,3,0,1,1-3-3,3,3,0,0,1,3,3" fill="#ffd300"/>
    <path id="Trazado_113" data-name="Trazado 113" d="M439,271.222a3,3,0,1,1-3-3,3,3,0,0,1,3,3" fill="#ffd300"/>
    <path id="Trazado_114" data-name="Trazado 114" d="M439.117,271.263a3,3,0,1,1-3-3,3,3,0,0,1,3,3" fill="#ffd300"/>
    <path id="Trazado_115" data-name="Trazado 115" d="M439.235,271.3a3,3,0,1,1-3-3,3,3,0,0,1,3,3" fill="#ffd300"/>
    <path id="Trazado_116" data-name="Trazado 116" d="M439.354,271.343a3,3,0,1,1-3-3,3,3,0,0,1,3,3" fill="#ffd300"/>
    <path id="Trazado_117" data-name="Trazado 117" d="M439.474,271.383a3,3,0,1,1-3-3,3,3,0,0,1,3,3" fill="#ffd300"/>
    <path id="Trazado_118" data-name="Trazado 118" d="M439.6,271.422a3,3,0,1,1-3-3,3,3,0,0,1,3,3" fill="#ffd300"/>
    <path id="Trazado_119" data-name="Trazado 119" d="M439.718,271.461a3,3,0,1,1-3-3,3,3,0,0,1,3,3" fill="#ffd300"/>
    <path id="Trazado_120" data-name="Trazado 120" d="M439.841,271.5a3,3,0,1,1-3-3,3,3,0,0,1,3,3" fill="#ffd300"/>
    <path id="Trazado_121" data-name="Trazado 121" d="M439.966,271.536a3,3,0,1,1-3-3,3,3,0,0,1,3,3" fill="#ffd300"/>
    <path id="Trazado_122" data-name="Trazado 122" d="M440.092,271.573a3,3,0,1,1-3-3,3,3,0,0,1,3,3" fill="#ffd300"/>
    <path id="Trazado_123" data-name="Trazado 123" d="M440.219,271.609a3,3,0,1,1-3-3,3,3,0,0,1,3,3" fill="#ffd300"/>
    <path id="Trazado_124" data-name="Trazado 124" d="M440.347,271.645a3,3,0,1,1-3-3,3,3,0,0,1,3,3" fill="#ffd300"/>
    <path id="Trazado_125" data-name="Trazado 125" d="M440.476,271.68a3,3,0,1,1-3-3,3,3,0,0,1,3,3" fill="#ffd300"/>
    <path id="Trazado_126" data-name="Trazado 126" d="M440.606,271.715a3,3,0,1,1-3-3,3,3,0,0,1,3,3" fill="#ffd300"/>
    <path id="Trazado_127" data-name="Trazado 127" d="M440.737,271.748a3,3,0,1,1-3-3,3,3,0,0,1,3,3" fill="#ffd300"/>
    <path id="Trazado_128" data-name="Trazado 128" d="M440.87,271.781a3,3,0,1,1-3-3,3,3,0,0,1,3,3" fill="#ffd300"/>
    <path id="Trazado_129" data-name="Trazado 129" d="M441.005,271.814a3,3,0,1,1-3-3,3,3,0,0,1,3,3" fill="#ffd300"/>
    <path id="Trazado_130" data-name="Trazado 130" d="M441.14,271.846a3,3,0,1,1-3-3,3,3,0,0,1,3,3" fill="#ffd300"/>
    <path id="Trazado_131" data-name="Trazado 131" d="M441.276,271.877a3,3,0,1,1-3-3,3,3,0,0,1,3,3" fill="#ffd300"/>
    <path id="Trazado_132" data-name="Trazado 132" d="M441.413,271.906a3,3,0,1,1-3-3,3,3,0,0,1,3,3" fill="#ffd300"/>
    <path id="Trazado_133" data-name="Trazado 133" d="M441.552,271.936a3,3,0,1,1-3-3,3,3,0,0,1,3,3" fill="#ffd300"/>
    <path id="Trazado_134" data-name="Trazado 134" d="M441.691,271.965a3,3,0,1,1-3-3,3,3,0,0,1,3,3" fill="#ffd300"/>
    <path id="Trazado_135" data-name="Trazado 135" d="M441.833,271.993a3,3,0,1,1-3-3,3,3,0,0,1,3,3" fill="#ffd300"/>
    <path id="Trazado_136" data-name="Trazado 136" d="M441.975,272.02a3,3,0,1,1-3-3,3,3,0,0,1,3,3" fill="#ffd300"/>
    <path id="Trazado_137" data-name="Trazado 137" d="M442.118,272.045a3,3,0,1,1-3-3,3,3,0,0,1,3,3" fill="#ffd300"/>
    <path id="Trazado_138" data-name="Trazado 138" d="M442.263,272.071a3,3,0,1,1-3-3,3,3,0,0,1,3,3" fill="#ffd300"/>
    <path id="Trazado_139" data-name="Trazado 139" d="M442.408,272.1a3,3,0,1,1-3-3,3,3,0,0,1,3,3" fill="#ffd300"/>
    <path id="Trazado_140" data-name="Trazado 140" d="M442.555,272.119a3,3,0,1,1-3-3,3,3,0,0,1,3,3" fill="#ffd300"/>
    <path id="Trazado_141" data-name="Trazado 141" d="M442.7,272.142a3,3,0,1,1-3-3,3,3,0,0,1,3,3" fill="#ffd300"/>
    <path id="Trazado_142" data-name="Trazado 142" d="M442.852,272.164a3,3,0,1,1-3-3,3,3,0,0,1,3,3" fill="#ffd300"/>
    <path id="Trazado_143" data-name="Trazado 143" d="M443,272.185a3,3,0,1,1-3-3,3,3,0,0,1,3,3" fill="#ffd300"/>
    <path id="Trazado_144" data-name="Trazado 144" d="M443.153,272.2a3,3,0,1,1-3-3,3,3,0,0,1,3,3" fill="#ffd300"/>
    <path id="Trazado_145" data-name="Trazado 145" d="M443.307,272.223a3,3,0,1,1-3-3,3,3,0,0,1,3,3" fill="#ffd300"/>
    <path id="Trazado_146" data-name="Trazado 146" d="M443.46,272.241a3,3,0,1,1-3-3,3,3,0,0,1,3,3" fill="#ffd300"/>
    <path id="Trazado_147" data-name="Trazado 147" d="M443.615,272.258a3,3,0,1,1-3-3,3,3,0,0,1,3,3" fill="#ffd300"/>
    <path id="Trazado_148" data-name="Trazado 148" d="M443.771,272.274a3,3,0,1,1-3-3,3,3,0,0,1,3,3" fill="#ffd300"/>
    <path id="Trazado_149" data-name="Trazado 149" d="M443.929,272.289a3,3,0,1,1-3-3,3,3,0,0,1,3,3" fill="#ffd300"/>
    <path id="Trazado_150" data-name="Trazado 150" d="M444.087,272.3a3,3,0,1,1-3-3,3,3,0,0,1,3,3" fill="#ffd300"/>
    <path id="Trazado_151" data-name="Trazado 151" d="M444.247,272.316a3,3,0,1,1-3-3,3,3,0,0,1,3,3" fill="#ffd300"/>
    <path id="Trazado_152" data-name="Trazado 152" d="M444.407,272.327a3,3,0,1,1-3-3,3,3,0,0,1,3,3" fill="#ffd300"/>
    <path id="Trazado_153" data-name="Trazado 153" d="M444.569,272.338a3,3,0,1,1-3-3,3,3,0,0,1,3,3" fill="#ffd300"/>
    <path id="Trazado_154" data-name="Trazado 154" d="M444.732,272.348a3,3,0,1,1-3-3,3,3,0,0,1,3,3" fill="#ffd300"/>
    <path id="Trazado_155" data-name="Trazado 155" d="M444.9,272.356a3,3,0,1,1-3-3,3,3,0,0,1,3,3" fill="#ffd300"/>
    <path id="Trazado_156" data-name="Trazado 156" d="M445.062,272.363a3,3,0,1,1-3-3,3,3,0,0,1,3,3" fill="#ffd300"/>
    <path id="Trazado_157" data-name="Trazado 157" d="M445.229,272.369a3,3,0,1,1-3-3,3,3,0,0,1,3,3" fill="#ffd300"/>
    <path id="Trazado_158" data-name="Trazado 158" d="M445.4,272.375a3,3,0,1,1-3-3,3,3,0,0,1,3,3" fill="#ffd300"/>
    <path id="Trazado_159" data-name="Trazado 159" d="M445.566,272.378a3,3,0,1,1-3-3,3,3,0,0,1,3,3" fill="#ffd300"/>
    <path id="Trazado_160" data-name="Trazado 160" d="M445.737,272.38a3,3,0,1,1-3-3,3,3,0,0,1,3,3" fill="#ffd300"/>
    <path id="Trazado_161" data-name="Trazado 161" d="M445.908,272.382a3,3,0,1,1-3-3,3,3,0,0,1,3,3" fill="#ffd300"/>
    <path id="Trazado_162" data-name="Trazado 162" d="M446.08,272.382a3,3,0,1,1-3-3,3,3,0,0,1,3,3" fill="#ffd300"/>
    <path id="Trazado_163" data-name="Trazado 163" d="M446.251,272.381a3,3,0,1,1-3-3,3,3,0,0,1,3,3" fill="#ffd300"/>
    <path id="Trazado_164" data-name="Trazado 164" d="M446.421,272.378a3,3,0,1,1-3-3,3,3,0,0,1,3,3" fill="#ffd300"/>
    <path id="Trazado_165" data-name="Trazado 165" d="M446.59,272.375a3,3,0,1,1-3-3,3,3,0,0,1,3,3" fill="#ffd300"/>
    <path id="Trazado_166" data-name="Trazado 166" d="M446.758,272.369a3,3,0,1,1-3-3,3,3,0,0,1,3,3" fill="#ffd300"/>
    <path id="Trazado_167" data-name="Trazado 167" d="M446.924,272.363a3,3,0,1,1-3-3,3,3,0,0,1,3,3" fill="#ffd300"/>
    <path id="Trazado_168" data-name="Trazado 168" d="M447.089,272.356a3,3,0,1,1-3-3,3,3,0,0,1,3,3" fill="#ffd300"/>
    <path id="Trazado_169" data-name="Trazado 169" d="M447.253,272.348a3,3,0,1,1-3-3,3,3,0,0,1,3,3" fill="#ffd300"/>
    <path id="Trazado_170" data-name="Trazado 170" d="M447.416,272.338a3,3,0,1,1-3-3,3,3,0,0,1,3,3" fill="#ffd300"/>
    <path id="Trazado_171" data-name="Trazado 171" d="M447.577,272.327a3,3,0,1,1-3-3,3,3,0,0,1,3,3" fill="#ffd300"/>
    <path id="Trazado_172" data-name="Trazado 172" d="M447.738,272.316a3,3,0,1,1-3-3,3,3,0,0,1,3,3" fill="#ffd300"/>
    <path id="Trazado_173" data-name="Trazado 173" d="M447.9,272.3a3,3,0,1,1-3-3,3,3,0,0,1,3,3" fill="#ffd300"/>
    <path id="Trazado_174" data-name="Trazado 174" d="M448.056,272.289a3,3,0,1,1-3-3,3,3,0,0,1,3,3" fill="#ffd300"/>
    <path id="Trazado_175" data-name="Trazado 175" d="M448.213,272.274a3,3,0,1,1-3-3,3,3,0,0,1,3,3" fill="#ffd300"/>
    <path id="Trazado_176" data-name="Trazado 176" d="M448.368,272.259a3,3,0,1,1-3-3,3,3,0,0,1,3,3" fill="#ffd300"/>
    <path id="Trazado_177" data-name="Trazado 177" d="M448.523,272.242a3,3,0,1,1-3-3,3,3,0,0,1,3,3" fill="#ffd300"/>
    <path id="Trazado_178" data-name="Trazado 178" d="M448.677,272.224a3,3,0,1,1-3-3,3,3,0,0,1,3,3" fill="#ffd300"/>
    <path id="Trazado_179" data-name="Trazado 179" d="M448.829,272.2a3,3,0,1,1-3-3,3,3,0,0,1,3,3" fill="#ffd300"/>
    <path id="Trazado_180" data-name="Trazado 180" d="M448.98,272.185a3,3,0,1,1-3-3,3,3,0,0,1,3,3" fill="#ffd300"/>
    <path id="Trazado_181" data-name="Trazado 181" d="M449.13,272.164a3,3,0,1,1-3-3,3,3,0,0,1,3,3" fill="#ffd300"/>
    <path id="Trazado_182" data-name="Trazado 182" d="M449.279,272.142a3,3,0,1,1-3-3,3,3,0,0,1,3,3" fill="#ffd300"/>
    <path id="Trazado_183" data-name="Trazado 183" d="M449.427,272.119a3,3,0,1,1-3-3,3,3,0,0,1,3,3" fill="#ffd300"/>
    <path id="Trazado_184" data-name="Trazado 184" d="M449.573,272.1a3,3,0,1,1-3-3,3,3,0,0,1,3,3" fill="#ffd300"/>
    <path id="Trazado_185" data-name="Trazado 185" d="M449.719,272.071a3,3,0,1,1-3-3,3,3,0,0,1,3,3" fill="#ffd300"/>
    <path id="Trazado_186" data-name="Trazado 186" d="M449.863,272.046a3,3,0,1,1-3-3,3,3,0,0,1,3,3" fill="#ffd300"/>
    <path id="Trazado_187" data-name="Trazado 187" d="M450.006,272.02a3,3,0,1,1-3-3,3,3,0,0,1,3,3" fill="#ffd300"/>
    <path id="Trazado_188" data-name="Trazado 188" d="M450.148,271.993a3,3,0,1,1-3-3,3,3,0,0,1,3,3" fill="#ffd300"/>
    <path id="Trazado_189" data-name="Trazado 189" d="M450.289,271.965a3,3,0,1,1-3-3,3,3,0,0,1,3,3" fill="#ffd300"/>
    <path id="Trazado_190" data-name="Trazado 190" d="M450.429,271.937a3,3,0,1,1-3-3,3,3,0,0,1,3,3" fill="#ffd300"/>
    <path id="Trazado_191" data-name="Trazado 191" d="M450.567,271.907a3,3,0,1,1-3-3,3,3,0,0,1,3,3" fill="#ffd300"/>
    <path id="Trazado_192" data-name="Trazado 192" d="M450.7,271.877a3,3,0,1,1-3-3,3,3,0,0,1,3,3" fill="#ffd300"/>
    <path id="Trazado_193" data-name="Trazado 193" d="M450.841,271.846a3,3,0,1,1-3-3,3,3,0,0,1,3,3" fill="#ffd300"/>
    <path id="Trazado_194" data-name="Trazado 194" d="M450.976,271.815a3,3,0,1,1-3-3,3,3,0,0,1,3,3" fill="#ffd300"/>
    <path id="Trazado_195" data-name="Trazado 195" d="M451.109,271.782a3,3,0,1,1-3-3,3,3,0,0,1,3,3" fill="#ffd300"/>
    <path id="Trazado_196" data-name="Trazado 196" d="M451.242,271.749a3,3,0,1,1-3-3,3,3,0,0,1,3,3" fill="#ffd300"/>
    <path id="Trazado_197" data-name="Trazado 197" d="M451.374,271.715a3,3,0,1,1-3-3,3,3,0,0,1,3,3" fill="#ffd300"/>
    <path id="Trazado_198" data-name="Trazado 198" d="M451.5,271.681a3,3,0,1,1-3-3,3,3,0,0,1,3,3" fill="#ffd300"/>
    <path id="Trazado_199" data-name="Trazado 199" d="M451.633,271.646a3,3,0,1,1-3-3,3,3,0,0,1,3,3" fill="#ffd300"/>
    <path id="Trazado_200" data-name="Trazado 200" d="M451.762,271.609a3,3,0,1,1-3-3,3,3,0,0,1,3,3" fill="#ffd300"/>
    <path id="Trazado_201" data-name="Trazado 201" d="M451.889,271.573a3,3,0,1,1-3-3,3,3,0,0,1,3,3" fill="#ffd300"/>
    <path id="Trazado_202" data-name="Trazado 202" d="M452.014,271.537a3,3,0,1,1-3-3,3,3,0,0,1,3,3" fill="#ffd300"/>
    <path id="Trazado_203" data-name="Trazado 203" d="M452.139,271.5a3,3,0,1,1-3-3,3,3,0,0,1,3,3" fill="#ffd300"/>
    <path id="Trazado_204" data-name="Trazado 204" d="M452.262,271.461a3,3,0,1,1-3-3,3,3,0,0,1,3,3" fill="#ffd300"/>
    <path id="Trazado_205" data-name="Trazado 205" d="M452.385,271.423a3,3,0,1,1-3-3,3,3,0,0,1,3,3" fill="#ffd300"/>
    <path id="Trazado_206" data-name="Trazado 206" d="M452.506,271.384a3,3,0,1,1-3-3,3,3,0,0,1,3,3" fill="#ffd300"/>
    <path id="Trazado_207" data-name="Trazado 207" d="M452.625,271.344a3,3,0,1,1-3-3,3,3,0,0,1,3,3" fill="#ffd300"/>
    <path id="Trazado_208" data-name="Trazado 208" d="M452.744,271.3a3,3,0,1,1-3-3,3,3,0,0,1,3,3" fill="#ffd300"/>
    <path id="Trazado_209" data-name="Trazado 209" d="M452.862,271.263a3,3,0,1,1-3-3,3,3,0,0,1,3,3" fill="#ffd300"/>
    <path id="Trazado_210" data-name="Trazado 210" d="M452.978,271.222a3,3,0,1,1-3-3,3,3,0,0,1,3,3" fill="#ffd300"/>
    <path id="Trazado_211" data-name="Trazado 211" d="M453.094,271.181a3,3,0,1,1-3-3,3,3,0,0,1,3,3" fill="#ffd300"/>
    <path id="Trazado_212" data-name="Trazado 212" d="M453.208,271.139a3,3,0,1,1-3-3,3,3,0,0,1,3,3" fill="#ffd300"/>
    <path id="Trazado_213" data-name="Trazado 213" d="M453.321,271.1a3,3,0,1,1-3-3,3,3,0,0,1,3,3" fill="#ffd300"/>
    <path id="Trazado_214" data-name="Trazado 214" d="M453.434,271.054a3,3,0,1,1-3-3,3,3,0,0,1,3,3" fill="#ffd300"/>
    <path id="Trazado_215" data-name="Trazado 215" d="M453.544,271.011a3,3,0,1,1-3-3,3,3,0,0,1,3,3" fill="#ffd300"/>
    <path id="Trazado_216" data-name="Trazado 216" d="M453.653,270.967a3,3,0,1,1-3-3,3,3,0,0,1,3,3" fill="#ffd300"/>
    <path id="Trazado_217" data-name="Trazado 217" d="M453.762,270.923a3,3,0,1,1-3-3,3,3,0,0,1,3,3" fill="#ffd300"/>
    <path id="Trazado_218" data-name="Trazado 218" d="M453.869,270.879a3,3,0,1,1-3-3,3,3,0,0,1,3,3" fill="#ffd300"/>
    <path id="Trazado_219" data-name="Trazado 219" d="M453.976,270.835a3,3,0,1,1-3-3,3,3,0,0,1,3,3" fill="#ffd300"/>
    <path id="Trazado_220" data-name="Trazado 220" d="M454.08,270.79a3,3,0,1,1-3-3,3,3,0,0,1,3,3" fill="#ffd300"/>
    <path id="Trazado_221" data-name="Trazado 221" d="M454.185,270.744a3,3,0,1,1-3-3,3,3,0,0,1,3,3" fill="#ffd300"/>
    <path id="Trazado_222" data-name="Trazado 222" d="M454.287,270.7a3,3,0,1,1-3-3,3,3,0,0,1,3,3" fill="#ffd300"/>
    <path id="Trazado_223" data-name="Trazado 223" d="M454.389,270.654a3,3,0,1,1-3-3,3,3,0,0,1,3,3" fill="#ffd300"/>
    <path id="Trazado_224" data-name="Trazado 224" d="M454.489,270.608a3,3,0,1,1-3-3,3,3,0,0,1,3,3" fill="#ffd300"/>
    <path id="Trazado_225" data-name="Trazado 225" d="M454.589,270.562a3,3,0,1,1-3-3,3,3,0,0,1,3,3" fill="#ffd300"/>
    <path id="Trazado_226" data-name="Trazado 226" d="M454.686,270.516a3,3,0,1,1-3-3,3,3,0,0,1,3,3" fill="#ffd300"/>
    <path id="Trazado_227" data-name="Trazado 227" d="M454.783,270.469a3,3,0,1,1-3-3,3,3,0,0,1,3,3" fill="#ffd300"/>
    <path id="Trazado_228" data-name="Trazado 228" d="M454.88,270.423a3,3,0,1,1-3-3,3,3,0,0,1,3,3" fill="#ffd300"/>
    <path id="Trazado_229" data-name="Trazado 229" d="M454.975,270.376a3,3,0,1,1-3-3,3,3,0,0,1,3,3" fill="#ffd300"/>
    <path id="Trazado_230" data-name="Trazado 230" d="M455.067,270.329a3,3,0,1,1-3-3,3,3,0,0,1,3,3" fill="#ffd300"/>
    <path id="Trazado_231" data-name="Trazado 231" d="M455.16,270.282a3,3,0,1,1-3-3,3,3,0,0,1,3,3" fill="#ffd300"/>
    <path id="Trazado_232" data-name="Trazado 232" d="M455.251,270.235a3,3,0,1,1-3-3,3,3,0,0,1,3,3" fill="#ffd300"/>
    <path id="Trazado_233" data-name="Trazado 233" d="M455.342,270.188a3,3,0,1,1-3-3,3,3,0,0,1,3,3" fill="#ffd300"/>
    <path id="Trazado_234" data-name="Trazado 234" d="M455.431,270.141a3,3,0,1,1-3-3,3,3,0,0,1,3,3" fill="#ffd300"/>
    <path id="Trazado_235" data-name="Trazado 235" d="M455.519,270.094a3,3,0,1,1-3-3,3,3,0,0,1,3,3" fill="#ffd300"/>
    <path id="Trazado_236" data-name="Trazado 236" d="M455.6,270.046a3,3,0,1,1-3-3,3,3,0,0,1,3,3" fill="#ffd300"/>
    <path id="Trazado_237" data-name="Trazado 237" d="M455.69,270a3,3,0,1,1-3-3,3,3,0,0,1,3,3" fill="#ffd300"/>
    <path id="Trazado_238" data-name="Trazado 238" d="M455.774,269.952a3,3,0,1,1-3-3,3,3,0,0,1,3,3" fill="#ffd300"/>
    <path id="Trazado_239" data-name="Trazado 239" d="M455.858,269.9a3,3,0,1,1-3-3,3,3,0,0,1,3,3" fill="#ffd300"/>
    <path id="Trazado_240" data-name="Trazado 240" d="M455.94,269.857a3,3,0,1,1-3-3,3,3,0,0,1,3,3" fill="#ffd300"/>
    <path id="Trazado_241" data-name="Trazado 241" d="M456.021,269.811a3,3,0,1,1-3-3,3,3,0,0,1,3,3" fill="#ffd300"/>
    <path id="Trazado_242" data-name="Trazado 242" d="M456.1,269.763a3,3,0,1,1-3-3,3,3,0,0,1,3,3" fill="#ffd300"/>
    <path id="Trazado_243" data-name="Trazado 243" d="M456.18,269.716a3,3,0,1,1-3-3,3,3,0,0,1,3,3" fill="#ffd300"/>
    <path id="Trazado_244" data-name="Trazado 244" d="M456.257,269.669a3,3,0,1,1-3-3,3,3,0,0,1,3,3" fill="#ffd300"/>
    <path id="Trazado_245" data-name="Trazado 245" d="M456.334,269.622a3,3,0,1,1-3-3,3,3,0,0,1,3,3" fill="#ffd300"/>
    <path id="Trazado_246" data-name="Trazado 246" d="M456.409,269.576a3,3,0,1,1-3-3,3,3,0,0,1,3,3" fill="#ffd300"/>
    <path id="Trazado_247" data-name="Trazado 247" d="M456.482,269.53a3,3,0,1,1-3-3,3,3,0,0,1,3,3" fill="#ffd300"/>
    <path id="Trazado_248" data-name="Trazado 248" d="M456.556,269.483a3,3,0,1,1-3-3,3,3,0,0,1,3,3" fill="#ffd300"/>
    <path id="Trazado_249" data-name="Trazado 249" d="M456.628,269.437a3,3,0,1,1-3-3,3,3,0,0,1,3,3" fill="#ffd300"/>
    <path id="Trazado_250" data-name="Trazado 250" d="M456.7,269.391a3,3,0,1,1-3-3,3,3,0,0,1,3,3" fill="#ffd300"/>
    <path id="Trazado_251" data-name="Trazado 251" d="M456.768,269.346a3,3,0,1,1-3-3,3,3,0,0,1,3,3" fill="#ffd300"/>
    <path id="Trazado_252" data-name="Trazado 252" d="M456.836,269.3a3,3,0,1,1-3-3,3,3,0,0,1,3,3" fill="#ffd300"/>
    <path id="Trazado_253" data-name="Trazado 253" d="M456.9,269.255a3,3,0,1,1-3-3,3,3,0,0,1,3,3" fill="#ffd300"/>
    <path id="Trazado_254" data-name="Trazado 254" d="M456.97,269.21a3,3,0,1,1-3-3,3,3,0,0,1,3,3" fill="#ffd300"/>
    <path id="Trazado_255" data-name="Trazado 255" d="M457.035,269.166a3,3,0,1,1-3-3,3,3,0,0,1,3,3" fill="#ffd300"/>
    <path id="Trazado_256" data-name="Trazado 256" d="M457.1,269.121a3,3,0,1,1-3-3,3,3,0,0,1,3,3" fill="#ffd300"/>
    <path id="Trazado_257" data-name="Trazado 257" d="M457.161,269.077a3,3,0,1,1-3-3,3,3,0,0,1,3,3" fill="#ffd300"/>
    <path id="Trazado_258" data-name="Trazado 258" d="M457.223,269.033a3,3,0,1,1-3-3,3,3,0,0,1,3,3" fill="#ffd300"/>
    <path id="Trazado_259" data-name="Trazado 259" d="M457.283,268.989a3,3,0,1,1-3-3,3,3,0,0,1,3,3" fill="#ffd300"/>
    <path id="Trazado_260" data-name="Trazado 260" d="M457.343,268.947a3,3,0,1,1-3-3,3,3,0,0,1,3,3" fill="#ffd300"/>
    <path id="Trazado_261" data-name="Trazado 261" d="M457.4,268.9a3,3,0,1,1-3-3,3,3,0,0,1,3,3" fill="#ffd300"/>
    <path id="Trazado_262" data-name="Trazado 262" d="M457.458,268.862a3,3,0,1,1-3-3,3,3,0,0,1,3,3" fill="#ffd300"/>
    <path id="Trazado_263" data-name="Trazado 263" d="M457.514,268.82a3,3,0,1,1-3-3,3,3,0,0,1,3,3" fill="#ffd300"/>
    <path id="Trazado_264" data-name="Trazado 264" d="M457.568,268.779a3,3,0,1,1-3-3,3,3,0,0,1,3,3" fill="#ffd300"/>
    <path id="Trazado_265" data-name="Trazado 265" d="M457.622,268.738a3,3,0,1,1-3-3,3,3,0,0,1,3,3" fill="#ffd300"/>
    <path id="Trazado_266" data-name="Trazado 266" d="M457.675,268.7a3,3,0,1,1-3-3,3,3,0,0,1,3,3" fill="#ffd300"/>
    <path id="Trazado_267" data-name="Trazado 267" d="M457.726,268.658a3,3,0,1,1-3-3,3,3,0,0,1,3,3" fill="#ffd300"/>
    <path id="Trazado_268" data-name="Trazado 268" d="M457.776,268.618a3,3,0,1,1-3-3,3,3,0,0,1,3,3" fill="#ffd300"/>
    <path id="Trazado_269" data-name="Trazado 269" d="M457.825,268.58a3,3,0,1,1-3-3,3,3,0,0,1,3,3" fill="#ffd300"/>
    <path id="Trazado_270" data-name="Trazado 270" d="M457.873,268.542a3,3,0,1,1-3-3,3,3,0,0,1,3,3" fill="#ffd300"/>
    <path id="Trazado_271" data-name="Trazado 271" d="M457.92,268.5a3,3,0,1,1-3-3,3,3,0,0,1,3,3" fill="#ffd300"/>
    <path id="Trazado_272" data-name="Trazado 272" d="M457.966,268.467a3,3,0,1,1-3-3,3,3,0,0,1,3,3" fill="#ffd300"/>
    <path id="Trazado_273" data-name="Trazado 273" d="M458.01,268.43a3,3,0,1,1-3-3,3,3,0,0,1,3,3" fill="#ffd300"/>
    <path id="Trazado_274" data-name="Trazado 274" d="M458.054,268.394a3,3,0,1,1-3-3,3,3,0,0,1,3,3" fill="#ffd300"/>
    <path id="Trazado_275" data-name="Trazado 275" d="M458.1,268.359a3,3,0,1,1-3-3,3,3,0,0,1,3,3" fill="#ffd300"/>
    <path id="Trazado_276" data-name="Trazado 276" d="M458.137,268.323a3,3,0,1,1-3-3,3,3,0,0,1,3,3" fill="#ffd300"/>
    <path id="Trazado_277" data-name="Trazado 277" d="M458.177,268.29a3,3,0,1,1-3-3,3,3,0,0,1,3,3" fill="#ffd300"/>
    <path id="Trazado_278" data-name="Trazado 278" d="M458.216,268.256a3,3,0,1,1-3-3,3,3,0,0,1,3,3" fill="#ffd300"/>
    <path id="Trazado_279" data-name="Trazado 279" d="M458.254,268.224a3,3,0,1,1-3-3,3,3,0,0,1,3,3" fill="#ffd300"/>
    <path id="Trazado_280" data-name="Trazado 280" d="M458.29,268.192a3,3,0,1,1-3-3,3,3,0,0,1,3,3" fill="#ffd300"/>
    <path id="Trazado_281" data-name="Trazado 281" d="M458.325,268.16a3,3,0,1,1-3-3,3,3,0,0,1,3,3" fill="#ffd300"/>
    <path id="Trazado_282" data-name="Trazado 282" d="M458.36,268.13a3,3,0,1,1-3-3,3,3,0,0,1,3,3" fill="#ffd300"/>
    <path id="Trazado_283" data-name="Trazado 283" d="M458.394,268.1a3,3,0,1,1-3-3,3,3,0,0,1,3,3" fill="#ffd300"/>
    <path id="Trazado_284" data-name="Trazado 284" d="M458.425,268.071a3,3,0,1,1-3-3,3,3,0,0,1,3,3" fill="#ffd300"/>
    <path id="Trazado_285" data-name="Trazado 285" d="M458.456,268.043a3,3,0,1,1-3-3,3,3,0,0,1,3,3" fill="#ffd300"/>
    <path id="Trazado_286" data-name="Trazado 286" d="M458.486,268.015a3,3,0,1,1-3-3,3,3,0,0,1,3,3" fill="#ffd300"/>
    <path id="Trazado_287" data-name="Trazado 287" d="M458.515,267.989a3,3,0,1,1-3-3,3,3,0,0,1,3,3" fill="#ffd300"/>
    <path id="Trazado_288" data-name="Trazado 288" d="M458.542,267.963a3,3,0,1,1-3-3,3,3,0,0,1,3,3" fill="#ffd300"/>
    <path id="Trazado_289" data-name="Trazado 289" d="M458.568,267.938a3,3,0,1,1-3-3,3,3,0,0,1,3,3" fill="#ffd300"/>
    <path id="Trazado_290" data-name="Trazado 290" d="M458.594,267.914a3,3,0,1,1-3-3,3,3,0,0,1,3,3" fill="#ffd300"/>
    <path id="Trazado_291" data-name="Trazado 291" d="M458.618,267.891a3,3,0,1,1-3-3,3,3,0,0,1,3,3" fill="#ffd300"/>
    <path id="Trazado_292" data-name="Trazado 292" d="M458.642,267.868a3,3,0,1,1-3-3,3,3,0,0,1,3,3" fill="#ffd300"/>
    <path id="Trazado_293" data-name="Trazado 293" d="M458.663,267.847a3,3,0,1,1-3-3,3,3,0,0,1,3,3" fill="#ffd300"/>
    <path id="Trazado_294" data-name="Trazado 294" d="M458.685,267.827a3,3,0,1,1-3-3,3,3,0,0,1,3,3" fill="#ffd300"/>
    <path id="Trazado_295" data-name="Trazado 295" d="M458.7,267.808a3,3,0,1,1-3-3,3,3,0,0,1,3,3" fill="#ffd300"/>
    <path id="Trazado_296" data-name="Trazado 296" d="M458.723,267.789a3,3,0,1,1-3-3,3,3,0,0,1,3,3" fill="#ffd300"/>
    <path id="Trazado_297" data-name="Trazado 297" d="M458.74,267.772a3,3,0,1,1-3-3,3,3,0,0,1,3,3" fill="#ffd300"/>
    <path id="Trazado_298" data-name="Trazado 298" d="M458.756,267.755a3,3,0,1,1-3-3,3,3,0,0,1,3,3" fill="#ffd300"/>
    <path id="Trazado_299" data-name="Trazado 299" d="M458.771,267.739a3,3,0,1,1-3-3,3,3,0,0,1,3,3" fill="#ffd300"/>
    <path id="Trazado_300" data-name="Trazado 300" d="M458.785,267.725a3,3,0,1,1-3-3,3,3,0,0,1,3,3" fill="#ffd300"/>
    <path id="Trazado_301" data-name="Trazado 301" d="M458.8,267.712a3,3,0,1,1-3-3,3,3,0,0,1,3,3" fill="#ffd300"/>
    <path id="Trazado_302" data-name="Trazado 302" d="M458.81,267.7a3,3,0,1,1-3-3,3,3,0,0,1,3,3" fill="#ffd300"/>
    <path id="Trazado_303" data-name="Trazado 303" d="M458.82,267.689a3,3,0,1,1-3-3,3,3,0,0,1,3,3" fill="#ffd300"/>
    <path id="Trazado_304" data-name="Trazado 304" d="M458.83,267.678a3,3,0,1,1-3-3,3,3,0,0,1,3,3" fill="#ffd300"/>
    <path id="Trazado_305" data-name="Trazado 305" d="M458.839,267.669a3,3,0,1,1-3-3,3,3,0,0,1,3,3" fill="#ffd300"/>
    <path id="Trazado_306" data-name="Trazado 306" d="M458.846,267.662a3,3,0,1,1-3-3,3,3,0,0,1,3,3" fill="#ffd300"/>
    <path id="Trazado_307" data-name="Trazado 307" d="M458.852,267.655a3,3,0,1,1-3-3,3,3,0,0,1,3,3" fill="#ffd300"/>
    <path id="Trazado_308" data-name="Trazado 308" d="M458.857,267.649a3,3,0,1,1-3-3,3,3,0,0,1,3,3" fill="#ffd300"/>
    <path id="Trazado_309" data-name="Trazado 309" d="M458.861,267.645a3,3,0,1,1-3-3,3,3,0,0,1,3,3" fill="#ffd300"/>
    <path id="Trazado_310" data-name="Trazado 310" d="M458.864,267.642a3,3,0,1,1-3-3,3,3,0,0,1,3,3" fill="#ffd300"/>
    <path id="Trazado_311" data-name="Trazado 311" d="M458.865,267.64a3,3,0,1,1-3-3,3,3,0,0,1,3,3" fill="#ffd300"/>
    <path id="Trazado_312" data-name="Trazado 312" d="M458.866,267.64a3,3,0,1,1-3-3,3,3,0,0,1,3,3" fill="#ffd300"/>
  </g>
</svg>
